<svg width="115" height="11" viewBox="0 0 115 11" fill="none" xmlns="http://www.w3.org/2000/svg">
<path d="M4.05826 10.6896C2.8356 10.6896 1.8836 10.3582 1.20226 9.69556C0.530264 9.02356 0.17093 8.10889 0.124264 6.95156C0.11493 6.67156 0.110264 6.23289 0.110264 5.63556C0.110264 5.02889 0.11493 4.59023 0.124264 4.31956C0.17093 3.17156 0.53493 2.26623 1.21626 1.60356C1.8976 0.940893 2.84493 0.60956 4.05826 0.60956C4.8796 0.60956 5.57493 0.758893 6.14426 1.05756C6.72293 1.34689 7.15693 1.70156 7.44626 2.12156C7.7356 2.54156 7.8896 2.93356 7.90826 3.29756V3.32556C7.90826 3.40023 7.88026 3.46089 7.82426 3.50756C7.76826 3.55423 7.69826 3.57756 7.61426 3.57756H6.78826C6.69493 3.57756 6.62493 3.56356 6.57826 3.53556C6.54093 3.49823 6.5036 3.42823 6.46626 3.32556C6.32626 2.90556 6.0556 2.54623 5.65426 2.24756C5.26226 1.94889 4.73026 1.79956 4.05826 1.79956C3.2836 1.79956 2.67693 2.00956 2.23826 2.42956C1.7996 2.84956 1.5616 3.50289 1.52426 4.38956C1.51493 4.66023 1.51026 5.07556 1.51026 5.63556C1.51026 6.18623 1.51493 6.60156 1.52426 6.88156C1.5616 7.77756 1.7996 8.44023 2.23826 8.86956C2.67693 9.28956 3.2836 9.49956 4.05826 9.49956C4.84226 9.49956 5.4676 9.28489 5.93426 8.85556C6.40093 8.42623 6.63426 7.78223 6.63426 6.92356V6.33556H4.53426C4.44093 6.33556 4.3616 6.30756 4.29626 6.25156C4.24026 6.18623 4.21226 6.10223 4.21226 5.99956V5.55156C4.21226 5.45823 4.24026 5.37889 4.29626 5.31356C4.3616 5.24823 4.44093 5.21556 4.53426 5.21556H7.69826C7.7916 5.21556 7.86626 5.24823 7.92226 5.31356C7.9876 5.36956 8.02026 5.44889 8.02026 5.55156V6.89556C8.02026 7.66089 7.8616 8.32823 7.54426 8.89756C7.22693 9.46689 6.7696 9.91023 6.17226 10.2276C5.57493 10.5356 4.87026 10.6896 4.05826 10.6896ZM12.7476 10.6896C11.7862 10.6896 11.0162 10.3956 10.4376 9.80756C9.86823 9.21023 9.55556 8.39823 9.49956 7.37156L9.48556 6.89556L9.49956 6.43356C9.56489 5.42556 9.88223 4.62289 10.4516 4.02556C11.0302 3.42823 11.7909 3.12956 12.7336 3.12956C13.7696 3.12956 14.5722 3.46089 15.1416 4.12356C15.7109 4.77689 15.9956 5.66356 15.9956 6.78356V7.02156C15.9956 7.11489 15.9629 7.19423 15.8976 7.25956C15.8416 7.31556 15.7669 7.34356 15.6736 7.34356H10.8296V7.46956C10.8576 8.07623 11.0396 8.59423 11.3756 9.02356C11.7209 9.44356 12.1736 9.65356 12.7336 9.65356C13.1629 9.65356 13.5129 9.56956 13.7836 9.40156C14.0636 9.22423 14.2689 9.04223 14.3996 8.85556C14.4836 8.74356 14.5442 8.67823 14.5816 8.65956C14.6282 8.63156 14.7076 8.61756 14.8196 8.61756H15.5056C15.5896 8.61756 15.6596 8.64089 15.7156 8.68756C15.7716 8.73423 15.7996 8.79956 15.7996 8.88356C15.7996 9.08889 15.6689 9.33623 15.4076 9.62556C15.1556 9.91489 14.7962 10.1669 14.3296 10.3816C13.8722 10.5869 13.3449 10.6896 12.7476 10.6896ZM14.6656 6.37756V6.33556C14.6656 5.69156 14.4882 5.16889 14.1336 4.76756C13.7882 4.35689 13.3216 4.15156 12.7336 4.15156C12.1456 4.15156 11.6789 4.35689 11.3336 4.76756C10.9976 5.16889 10.8296 5.69156 10.8296 6.33556V6.37756H14.6656ZM20.4705 10.5496C18.9959 10.5496 18.2585 9.72823 18.2585 8.08556V4.38956H17.1665C17.0732 4.38956 16.9939 4.36156 16.9285 4.30556C16.8725 4.24023 16.8445 4.16089 16.8445 4.06756V3.59156C16.8445 3.49823 16.8725 3.42356 16.9285 3.36756C16.9939 3.30223 17.0732 3.26956 17.1665 3.26956H18.2585V0.93156C18.2585 0.838227 18.2865 0.76356 18.3425 0.70756C18.4079 0.642227 18.4872 0.60956 18.5805 0.60956H19.2385C19.3319 0.60956 19.4065 0.642227 19.4625 0.70756C19.5279 0.76356 19.5605 0.838227 19.5605 0.93156V3.26956H21.2965C21.3899 3.26956 21.4645 3.30223 21.5205 3.36756C21.5859 3.42356 21.6185 3.49823 21.6185 3.59156V4.06756C21.6185 4.16089 21.5859 4.24023 21.5205 4.30556C21.4645 4.36156 21.3899 4.38956 21.2965 4.38956H19.5605V7.98756C19.5605 8.45423 19.6399 8.80889 19.7985 9.05156C19.9572 9.28489 20.2185 9.40156 20.5825 9.40156H21.4365C21.5299 9.40156 21.6045 9.43423 21.6605 9.49956C21.7259 9.55556 21.7585 9.63023 21.7585 9.72356V10.2276C21.7585 10.3209 21.7259 10.4002 21.6605 10.4656C21.6045 10.5216 21.5299 10.5496 21.4365 10.5496H20.4705ZM27.0329 10.5496C26.9396 10.5496 26.8603 10.5216 26.7949 10.4656C26.7389 10.4002 26.7109 10.3209 26.7109 10.2276V1.08556C26.7109 0.982893 26.7389 0.90356 26.7949 0.84756C26.8603 0.782227 26.9396 0.74956 27.0329 0.74956H27.6769C27.8449 0.74956 27.9616 0.814893 28.0269 0.94556L32.6749 8.08556V1.08556C32.6749 0.982893 32.7029 0.90356 32.7589 0.84756C32.8243 0.782227 32.9036 0.74956 32.9969 0.74956H33.6689C33.7716 0.74956 33.8509 0.782227 33.9069 0.84756C33.9723 0.90356 34.0049 0.982893 34.0049 1.08556V10.2136C34.0049 10.3069 33.9723 10.3862 33.9069 10.4516C33.8509 10.5169 33.7763 10.5496 33.6829 10.5496H33.0109C32.8709 10.5496 32.7589 10.4842 32.6749 10.3536L28.0409 3.28356V10.2276C28.0409 10.3209 28.0083 10.4002 27.9429 10.4656C27.8776 10.5216 27.7983 10.5496 27.7049 10.5496H27.0329ZM39.1753 10.6896C38.214 10.6896 37.444 10.3956 36.8653 9.80756C36.296 9.21023 35.9833 8.39823 35.9273 7.37156L35.9133 6.89556L35.9273 6.43356C35.9926 5.42556 36.31 4.62289 36.8793 4.02556C37.458 3.42823 38.2186 3.12956 39.1613 3.12956C40.1973 3.12956 41 3.46089 41.5693 4.12356C42.1386 4.77689 42.4233 5.66356 42.4233 6.78356V7.02156C42.4233 7.11489 42.3906 7.19423 42.3253 7.25956C42.2693 7.31556 42.1946 7.34356 42.1013 7.34356H37.2573V7.46956C37.2853 8.07623 37.4673 8.59423 37.8033 9.02356C38.1486 9.44356 38.6013 9.65356 39.1613 9.65356C39.5906 9.65356 39.9406 9.56956 40.2113 9.40156C40.4913 9.22423 40.6966 9.04223 40.8273 8.85556C40.9113 8.74356 40.972 8.67823 41.0093 8.65956C41.056 8.63156 41.1353 8.61756 41.2473 8.61756H41.9333C42.0173 8.61756 42.0873 8.64089 42.1433 8.68756C42.1993 8.73423 42.2273 8.79956 42.2273 8.88356C42.2273 9.08889 42.0966 9.33623 41.8353 9.62556C41.5833 9.91489 41.224 10.1669 40.7573 10.3816C40.3 10.5869 39.7726 10.6896 39.1753 10.6896ZM41.0933 6.37756V6.33556C41.0933 5.69156 40.916 5.16889 40.5613 4.76756C40.216 4.35689 39.7493 4.15156 39.1613 4.15156C38.5733 4.15156 38.1066 4.35689 37.7613 4.76756C37.4253 5.16889 37.2573 5.69156 37.2573 6.33556V6.37756H41.0933ZM45.8379 10.5496C45.7165 10.5496 45.6232 10.5216 45.5579 10.4656C45.4925 10.4096 45.4365 10.3209 45.3899 10.1996L43.4019 3.70356L43.3739 3.56356C43.3739 3.47956 43.4019 3.40956 43.4579 3.35356C43.5232 3.29756 43.5932 3.26956 43.6679 3.26956H44.2839C44.3772 3.26956 44.4519 3.29756 44.5079 3.35356C44.5732 3.40023 44.6152 3.45156 44.6339 3.50756L46.1879 8.78556L47.8539 3.56356C47.8725 3.48889 47.9145 3.42356 47.9799 3.36756C48.0452 3.30223 48.1339 3.26956 48.2459 3.26956H48.7219C48.8339 3.26956 48.9225 3.30223 48.9879 3.36756C49.0532 3.42356 49.0952 3.48889 49.1139 3.56356L50.7799 8.78556L52.3339 3.50756C52.3432 3.46089 52.3759 3.40956 52.4319 3.35356C52.4972 3.29756 52.5765 3.26956 52.6699 3.26956H53.2999C53.3745 3.26956 53.4399 3.29756 53.4959 3.35356C53.5519 3.40956 53.5799 3.47956 53.5799 3.56356L53.5519 3.70356L51.5779 10.1996C51.5312 10.3209 51.4752 10.4096 51.4099 10.4656C51.3445 10.5216 51.2465 10.5496 51.1159 10.5496H50.5699C50.3179 10.5496 50.1639 10.4329 50.1079 10.1996L48.4839 5.18756L46.8599 10.1996C46.7852 10.4329 46.6265 10.5496 46.3839 10.5496H45.8379ZM58.738 10.5496C58.6447 10.5496 58.5653 10.5216 58.5 10.4656C58.444 10.4002 58.416 10.3209 58.416 10.2276V1.08556C58.416 0.982893 58.444 0.90356 58.5 0.84756C58.5653 0.782227 58.6447 0.74956 58.738 0.74956H64.45C64.5527 0.74956 64.632 0.782227 64.688 0.84756C64.7533 0.90356 64.786 0.982893 64.786 1.08556V1.64556C64.786 1.73889 64.7533 1.81823 64.688 1.88356C64.632 1.93956 64.5527 1.96756 64.45 1.96756H59.774V5.22956H64.17C64.2727 5.22956 64.352 5.26223 64.408 5.32756C64.4733 5.38356 64.506 5.46289 64.506 5.56556V6.12556C64.506 6.21889 64.4733 6.29823 64.408 6.36356C64.3427 6.41956 64.2633 6.44756 64.17 6.44756H59.774V10.2276C59.774 10.3209 59.7413 10.4002 59.676 10.4656C59.6107 10.5216 59.5313 10.5496 59.438 10.5496H58.738ZM69.1714 10.6896C68.2101 10.6896 67.4401 10.3956 66.8614 9.80756C66.2921 9.21023 65.9794 8.39823 65.9234 7.37156L65.9094 6.89556L65.9234 6.43356C65.9887 5.42556 66.3061 4.62289 66.8754 4.02556C67.4541 3.42823 68.2147 3.12956 69.1574 3.12956C70.1934 3.12956 70.9961 3.46089 71.5654 4.12356C72.1347 4.77689 72.4194 5.66356 72.4194 6.78356V7.02156C72.4194 7.11489 72.3867 7.19423 72.3214 7.25956C72.2654 7.31556 72.1907 7.34356 72.0974 7.34356H67.2534V7.46956C67.2814 8.07623 67.4634 8.59423 67.7994 9.02356C68.1447 9.44356 68.5974 9.65356 69.1574 9.65356C69.5867 9.65356 69.9367 9.56956 70.2074 9.40156C70.4874 9.22423 70.6927 9.04223 70.8234 8.85556C70.9074 8.74356 70.9681 8.67823 71.0054 8.65956C71.0521 8.63156 71.1314 8.61756 71.2434 8.61756H71.9294C72.0134 8.61756 72.0834 8.64089 72.1394 8.68756C72.1954 8.73423 72.2234 8.79956 72.2234 8.88356C72.2234 9.08889 72.0927 9.33623 71.8314 9.62556C71.5794 9.91489 71.2201 10.1669 70.7534 10.3816C70.2961 10.5869 69.7687 10.6896 69.1714 10.6896ZM71.0894 6.37756V6.33556C71.0894 5.69156 70.9121 5.16889 70.5574 4.76756C70.2121 4.35689 69.7454 4.15156 69.1574 4.15156C68.5694 4.15156 68.1027 4.35689 67.7574 4.76756C67.4214 5.16889 67.2534 5.69156 67.2534 6.33556V6.37756H71.0894ZM76.1234 10.6896C75.666 10.6896 75.2414 10.5962 74.8494 10.4096C74.4574 10.2229 74.1447 9.97089 73.9114 9.65356C73.6874 9.32689 73.5754 8.96756 73.5754 8.57556C73.5754 7.95956 73.8274 7.45556 74.3314 7.06356C74.8447 6.66223 75.5354 6.40089 76.4034 6.27956L78.4894 5.98556V5.57956C78.4894 4.62756 77.9434 4.15156 76.8514 4.15156C76.4407 4.15156 76.1047 4.24023 75.8434 4.41756C75.582 4.58556 75.386 4.78623 75.2554 5.01956C75.2274 5.10356 75.19 5.16423 75.1434 5.20156C75.106 5.23889 75.05 5.25756 74.9754 5.25756H74.3734C74.2894 5.25756 74.2147 5.22956 74.1494 5.17356C74.0934 5.10823 74.0654 5.03356 74.0654 4.94956C74.0747 4.72556 74.1774 4.47356 74.3734 4.19356C74.5787 3.90423 74.8914 3.65689 75.3114 3.45156C75.7314 3.23689 76.2494 3.12956 76.8654 3.12956C77.9107 3.12956 78.662 3.37689 79.1194 3.87156C79.5767 4.35689 79.8054 4.96356 79.8054 5.69156V10.2276C79.8054 10.3209 79.7727 10.4002 79.7074 10.4656C79.6514 10.5216 79.5767 10.5496 79.4834 10.5496H78.8394C78.746 10.5496 78.6667 10.5216 78.6014 10.4656C78.5454 10.4002 78.5174 10.3209 78.5174 10.2276V9.62556C78.312 9.92423 78.0134 10.1762 77.6214 10.3816C77.2294 10.5869 76.73 10.6896 76.1234 10.6896ZM76.4174 9.63956C77.024 9.63956 77.5187 9.44356 77.9014 9.05156C78.2934 8.65023 78.4894 8.07623 78.4894 7.32956V6.93756L76.8654 7.17556C76.2027 7.26889 75.7034 7.42756 75.3674 7.65156C75.0314 7.86623 74.8634 8.14156 74.8634 8.47756C74.8634 8.85089 75.0174 9.14023 75.3254 9.34556C75.6334 9.54156 75.9974 9.63956 76.4174 9.63956ZM84.5916 10.5496C83.117 10.5496 82.3796 9.72823 82.3796 8.08556V4.38956H81.2876C81.1943 4.38956 81.115 4.36156 81.0496 4.30556C80.9936 4.24023 80.9656 4.16089 80.9656 4.06756V3.59156C80.9656 3.49823 80.9936 3.42356 81.0496 3.36756C81.115 3.30223 81.1943 3.26956 81.2876 3.26956H82.3796V0.93156C82.3796 0.838227 82.4076 0.76356 82.4636 0.70756C82.529 0.642227 82.6083 0.60956 82.7016 0.60956H83.3596C83.453 0.60956 83.5276 0.642227 83.5836 0.70756C83.649 0.76356 83.6816 0.838227 83.6816 0.93156V3.26956H85.4176C85.511 3.26956 85.5856 3.30223 85.6416 3.36756C85.707 3.42356 85.7396 3.49823 85.7396 3.59156V4.06756C85.7396 4.16089 85.707 4.24023 85.6416 4.30556C85.5856 4.36156 85.511 4.38956 85.4176 4.38956H83.6816V7.98756C83.6816 8.45423 83.761 8.80889 83.9196 9.05156C84.0783 9.28489 84.3396 9.40156 84.7036 9.40156H85.5576C85.651 9.40156 85.7256 9.43423 85.7816 9.49956C85.847 9.55556 85.8796 9.63023 85.8796 9.72356V10.2276C85.8796 10.3209 85.847 10.4002 85.7816 10.4656C85.7256 10.5216 85.651 10.5496 85.5576 10.5496H84.5916ZM89.9344 10.6896C89.0477 10.6896 88.3617 10.4049 87.8764 9.83556C87.391 9.25689 87.1484 8.49156 87.1484 7.53956V3.59156C87.1484 3.49823 87.1764 3.42356 87.2324 3.36756C87.2977 3.30223 87.377 3.26956 87.4704 3.26956H88.1704C88.2637 3.26956 88.3384 3.30223 88.3944 3.36756C88.4597 3.42356 88.4924 3.49823 88.4924 3.59156V7.46956C88.4924 8.86023 89.099 9.55556 90.3124 9.55556C90.9004 9.55556 91.367 9.37356 91.7124 9.00956C92.0577 8.63623 92.2304 8.12289 92.2304 7.46956V3.59156C92.2304 3.49823 92.2584 3.42356 92.3144 3.36756C92.3797 3.30223 92.459 3.26956 92.5524 3.26956H93.2524C93.3457 3.26956 93.4204 3.30223 93.4764 3.36756C93.5324 3.42356 93.5604 3.49823 93.5604 3.59156V10.2276C93.5604 10.3209 93.5324 10.4002 93.4764 10.4656C93.4204 10.5216 93.3457 10.5496 93.2524 10.5496H92.5944C92.501 10.5496 92.4217 10.5216 92.3564 10.4656C92.3004 10.4002 92.2724 10.3209 92.2724 10.2276V9.61156C92.011 9.96623 91.6937 10.2369 91.3204 10.4236C90.947 10.6009 90.485 10.6896 89.9344 10.6896ZM95.9622 10.5496C95.8689 10.5496 95.7896 10.5216 95.7242 10.4656C95.6682 10.4002 95.6402 10.3209 95.6402 10.2276V3.60556C95.6402 3.51223 95.6682 3.43289 95.7242 3.36756C95.7896 3.30223 95.8689 3.26956 95.9622 3.26956H96.6062C96.6996 3.26956 96.7789 3.30223 96.8442 3.36756C96.9096 3.43289 96.9422 3.51223 96.9422 3.60556V4.22156C97.3249 3.58689 97.9782 3.26956 98.9022 3.26956H99.4482C99.5416 3.26956 99.6162 3.30223 99.6722 3.36756C99.7376 3.42356 99.7702 3.49823 99.7702 3.59156V4.16556C99.7702 4.25889 99.7376 4.33356 99.6722 4.38956C99.6162 4.44556 99.5416 4.47356 99.4482 4.47356H98.6082C98.1042 4.47356 97.7076 4.62289 97.4182 4.92156C97.1289 5.21089 96.9842 5.60756 96.9842 6.11156V10.2276C96.9842 10.3209 96.9516 10.4002 96.8862 10.4656C96.8209 10.5216 96.7416 10.5496 96.6482 10.5496H95.9622ZM103.734 10.6896C102.773 10.6896 102.003 10.3956 101.424 9.80756C100.855 9.21023 100.542 8.39823 100.486 7.37156L100.472 6.89556L100.486 6.43356C100.551 5.42556 100.869 4.62289 101.438 4.02556C102.017 3.42823 102.777 3.12956 103.72 3.12956C104.756 3.12956 105.559 3.46089 106.128 4.12356C106.697 4.77689 106.982 5.66356 106.982 6.78356V7.02156C106.982 7.11489 106.949 7.19423 106.884 7.25956C106.828 7.31556 106.753 7.34356 106.66 7.34356H101.816V7.46956C101.844 8.07623 102.026 8.59423 102.362 9.02356C102.707 9.44356 103.16 9.65356 103.72 9.65356C104.149 9.65356 104.499 9.56956 104.77 9.40156C105.05 9.22423 105.255 9.04223 105.386 8.85556C105.47 8.74356 105.531 8.67823 105.568 8.65956C105.615 8.63156 105.694 8.61756 105.806 8.61756H106.492C106.576 8.61756 106.646 8.64089 106.702 8.68756C106.758 8.73423 106.786 8.79956 106.786 8.88356C106.786 9.08889 106.655 9.33623 106.394 9.62556C106.142 9.91489 105.783 10.1669 105.316 10.3816C104.859 10.5869 104.331 10.6896 103.734 10.6896ZM105.652 6.37756V6.33556C105.652 5.69156 105.475 5.16889 105.12 4.76756C104.775 4.35689 104.308 4.15156 103.72 4.15156C103.132 4.15156 102.665 4.35689 102.32 4.76756C101.984 5.16889 101.816 5.69156 101.816 6.33556V6.37756H105.652ZM111.176 10.6896C110.523 10.6896 109.972 10.5869 109.524 10.3816C109.085 10.1669 108.754 9.92423 108.53 9.65356C108.315 9.38289 108.208 9.15889 108.208 8.98156C108.208 8.88823 108.241 8.81823 108.306 8.77156C108.381 8.71556 108.455 8.68756 108.53 8.68756H109.16C109.253 8.68756 109.337 8.73423 109.412 8.82756C109.636 9.08889 109.879 9.29423 110.14 9.44356C110.401 9.59289 110.751 9.66756 111.19 9.66756C111.675 9.66756 112.067 9.57423 112.366 9.38756C112.674 9.19156 112.828 8.92556 112.828 8.58956C112.828 8.36556 112.763 8.18356 112.632 8.04356C112.511 7.89423 112.296 7.76823 111.988 7.66556C111.689 7.55356 111.241 7.43223 110.644 7.30156C109.832 7.12423 109.253 6.86756 108.908 6.53156C108.572 6.19556 108.404 5.76156 108.404 5.22956C108.404 4.87489 108.507 4.53889 108.712 4.22156C108.927 3.89489 109.235 3.63356 109.636 3.43756C110.047 3.23223 110.537 3.12956 111.106 3.12956C111.703 3.12956 112.212 3.22756 112.632 3.42356C113.052 3.61956 113.365 3.85289 113.57 4.12356C113.785 4.38489 113.892 4.60423 113.892 4.78156C113.892 4.86556 113.859 4.93556 113.794 4.99156C113.738 5.04756 113.668 5.07556 113.584 5.07556H112.996C112.884 5.07556 112.791 5.02889 112.716 4.93556C112.567 4.75823 112.436 4.62289 112.324 4.52956C112.221 4.42689 112.067 4.33823 111.862 4.26356C111.666 4.18889 111.414 4.15156 111.106 4.15156C110.658 4.15156 110.313 4.24956 110.07 4.44556C109.827 4.63223 109.706 4.87956 109.706 5.18756C109.706 5.38356 109.757 5.55156 109.86 5.69156C109.963 5.82223 110.159 5.94356 110.448 6.05556C110.747 6.16756 111.176 6.28423 111.736 6.40556C112.623 6.59223 113.248 6.86289 113.612 7.21756C113.985 7.56289 114.172 8.00623 114.172 8.54756C114.172 8.94889 114.055 9.31289 113.822 9.63956C113.589 9.96623 113.243 10.2229 112.786 10.4096C112.338 10.5962 111.801 10.6896 111.176 10.6896Z" fill="#4F5665"/>
</svg>
